<?xml version="1.0" encoding="UTF-8"?>
<svg width="48px" height="93px" viewBox="0 0 48 93" version="1.1" xmlns="http://www.w3.org/2000/svg" xmlns:xlink="http://www.w3.org/1999/xlink">
    <!-- Generator: Sketch 52.4 (67378) - http://www.bohemiancoding.com/sketch -->
    <title>Group</title>
    <desc>Created with Sketch.</desc>
    <g id="Page-1" stroke="none" stroke-width="1" fill="none" fill-rule="evenodd">
        <g id="Group" fill="#FFFFFF">
            <path d="M43.212,33.203 C43.529,31.464 45.629,33.405 46.217,32.235 C43.05,30.923 45.023,28.476 46.666,27.045 C43.096,26.419 45.685,22.022 46.925,20.459 C46.174,19.835 43.601,20.095 44.145,18.834 C44.606,17.732 46.266,19.099 46.559,17.663 C40.767,16.678 42.485,12.035 40.85,9.018 C36.563,9.001 37.015,4.383 31.108,4.335 C31.142,-2.639 24.01,6.043 20.363,0.638 C18.578,1.563 21.212,3.14 19.315,5.62 C16.055,5.047 14.131,7.216 10.134,5.135 C10.738,10.526 8.149,15.012 3.063,14.049 C3.463,15.512 7.296,15.299 6.626,17.278 C3.304,22.306 0.601,25.083 0.295,31.795 C3.282,33.222 2.852,35.476 0.442,37.191 C2.586,37.504 3.314,34.927 6.04,36.439 C5.78,37.235 6.899,37.35 6.83,38.048 C6.846,40.226 3.742,41.095 5.179,42.824 C6.321,40.744 9.163,42.156 11.774,43.083 C11.115,44.894 11.265,46.314 12.333,47.284 C14.699,41.35 21.261,45.638 22.293,49.378 C22.935,48.319 23.395,46.88 24.908,47.607 C30.693,49.749 25.965,57.023 28.377,60.817 C30.385,56.376 27.398,44.829 35.318,44.507 C36.687,46.326 36.833,48.74 37.857,50.723 C38.058,47.01 36.411,40.21 41.367,38.577 C44.91,39.169 44.888,41.491 47.317,42.628 C46.912,39.018 40.812,38.183 43.212,33.203 Z" id="Path"></path>
            <path d="M28.259,87.182 C30.149,82.478 28.49,75.864 27.201,71.733 C26.482,76.742 22.699,85.481 28.259,87.182 Z" id="Path"></path>
            <path d="M39.148,86.77 C37.875,88.14 37.875,92.295 40.962,92.118 C41.978,90.349 41.763,87.345 39.148,86.77 Z" id="Path"></path>
        </g>
    </g>
</svg>